<svg xmlns="http://www.w3.org/2000/svg" xmlns:xlink="http://www.w3.org/1999/xlink" width="500" zoomAndPan="magnify" viewBox="0 0 375 374.999991" height="500" preserveAspectRatio="xMidYMid meet" version="1.0"><defs><g/><clipPath id="4bbcbf195d"><path d="M 75.691406 119.160156 L 265 119.160156 L 265 182.996094 L 75.691406 182.996094 Z M 75.691406 119.160156 " clip-rule="nonzero"/></clipPath><clipPath id="027fc7012d"><path d="M 189 120 L 299.632812 120 L 299.632812 182 L 189 182 Z M 189 120 " clip-rule="nonzero"/></clipPath></defs><rect x="-37.5" width="450" fill="#ffffff" y="-37.499999" height="449.999989" fill-opacity="1"/><rect x="-37.5" width="450" fill="#302d2d" y="-37.499999" height="449.999989" fill-opacity="1"/><g clip-path="url(#4bbcbf195d)"><path fill="#f1f1f4" d="M 79.09375 182.769531 L 170.300781 123.765625 C 170.300781 123.765625 261.507812 182.769531 261.507812 182.769531 C 262.453125 183.382812 263.714844 183.113281 264.324219 182.167969 C 264.9375 181.222656 264.664062 179.960938 263.71875 179.351562 C 263.71875 179.351562 171.410156 119.628906 171.410156 119.628906 C 170.734375 119.195312 169.867188 119.195312 169.195312 119.628906 C 169.195312 119.628906 76.882812 179.351562 76.882812 179.351562 C 75.9375 179.960938 75.667969 181.222656 76.28125 182.167969 C 76.890625 183.113281 78.152344 183.382812 79.09375 182.769531 Z M 79.09375 182.769531 " fill-opacity="1" fill-rule="evenodd"/></g><g clip-path="url(#027fc7012d)"><path fill="#f1f1f4" d="M 192.851562 135.832031 L 209.628906 124.976562 C 209.628906 124.976562 295.855469 181.546875 295.855469 181.546875 C 296.796875 182.164062 298.0625 181.902344 298.679688 180.960938 C 299.292969 180.019531 299.03125 178.757812 298.089844 178.140625 C 298.089844 178.140625 210.753906 120.84375 210.753906 120.84375 C 210.078125 120.398438 209.207031 120.398438 208.527344 120.835938 C 208.527344 120.835938 201.101562 125.640625 190.636719 132.410156 C 189.695312 133.019531 189.421875 134.28125 190.035156 135.226562 C 190.644531 136.171875 191.90625 136.441406 192.851562 135.832031 Z M 192.851562 135.832031 " fill-opacity="1" fill-rule="evenodd"/></g><path fill="#f1f1f4" d="M 128.636719 148.890625 L 128.636719 133.503906 C 128.636719 132.386719 127.726562 131.476562 126.605469 131.476562 L 109.632812 131.476562 C 108.507812 131.476562 107.605469 132.386719 107.605469 133.503906 L 107.605469 160.589844 C 107.605469 161.707031 108.507812 162.617188 109.632812 162.617188 C 110.753906 162.617188 111.664062 161.707031 111.664062 160.589844 L 111.664062 135.53125 C 111.664062 135.53125 124.574219 135.53125 124.574219 135.53125 L 124.574219 148.890625 C 124.574219 150.007812 125.488281 150.917969 126.605469 150.917969 C 127.726562 150.917969 128.636719 150.007812 128.636719 148.890625 Z M 128.636719 148.890625 " fill-opacity="1" fill-rule="evenodd"/><g fill="#f1f1f4" fill-opacity="1"><g transform="translate(67.025186, 225.146664)"><g><path d="M 17.71875 0 L 11.09375 -11.375 L 6.703125 -11.375 L 6.703125 0 L 3.078125 0 L 3.078125 -27.828125 L 12.0625 -27.828125 C 14.15625 -27.828125 15.925781 -27.46875 17.375 -26.75 C 18.832031 -26.03125 19.921875 -25.054688 20.640625 -23.828125 C 21.359375 -22.609375 21.71875 -21.210938 21.71875 -19.640625 C 21.71875 -17.722656 21.164062 -16.03125 20.0625 -14.5625 C 18.957031 -13.101562 17.300781 -12.132812 15.09375 -11.65625 L 22.078125 0 Z M 6.703125 -14.296875 L 12.0625 -14.296875 C 14.03125 -14.296875 15.503906 -14.78125 16.484375 -15.75 C 17.472656 -16.71875 17.96875 -18.015625 17.96875 -19.640625 C 17.96875 -21.285156 17.476562 -22.5625 16.5 -23.46875 C 15.53125 -24.375 14.050781 -24.828125 12.0625 -24.828125 L 6.703125 -24.828125 Z M 6.703125 -14.296875 "/></g></g></g><g fill="#f1f1f4" fill-opacity="1"><g transform="translate(109.140807, 225.146664)"><g><path d="M 15.6875 0.28125 C 13.101562 0.28125 10.742188 -0.320312 8.609375 -1.53125 C 6.484375 -2.75 4.800781 -4.441406 3.5625 -6.609375 C 2.332031 -8.773438 1.71875 -11.21875 1.71875 -13.9375 C 1.71875 -16.644531 2.332031 -19.082031 3.5625 -21.25 C 4.800781 -23.425781 6.484375 -25.117188 8.609375 -26.328125 C 10.742188 -27.535156 13.101562 -28.140625 15.6875 -28.140625 C 18.300781 -28.140625 20.671875 -27.535156 22.796875 -26.328125 C 24.921875 -25.117188 26.59375 -23.4375 27.8125 -21.28125 C 29.039062 -19.125 29.65625 -16.675781 29.65625 -13.9375 C 29.65625 -11.195312 29.039062 -8.75 27.8125 -6.59375 C 26.59375 -4.4375 24.921875 -2.75 22.796875 -1.53125 C 20.671875 -0.320312 18.300781 0.28125 15.6875 0.28125 Z M 15.6875 -2.875 C 17.632812 -2.875 19.382812 -3.328125 20.9375 -4.234375 C 22.5 -5.140625 23.722656 -6.429688 24.609375 -8.109375 C 25.503906 -9.785156 25.953125 -11.726562 25.953125 -13.9375 C 25.953125 -16.164062 25.503906 -18.113281 24.609375 -19.78125 C 23.722656 -21.445312 22.503906 -22.726562 20.953125 -23.625 C 19.410156 -24.53125 17.65625 -24.984375 15.6875 -24.984375 C 13.71875 -24.984375 11.960938 -24.53125 10.421875 -23.625 C 8.878906 -22.726562 7.660156 -21.445312 6.765625 -19.78125 C 5.867188 -18.113281 5.421875 -16.164062 5.421875 -13.9375 C 5.421875 -11.726562 5.867188 -9.785156 6.765625 -8.109375 C 7.660156 -6.429688 8.882812 -5.140625 10.4375 -4.234375 C 12 -3.328125 13.75 -2.875 15.6875 -2.875 Z M 15.6875 -2.875 "/></g></g></g><g fill="#f1f1f4" fill-opacity="1"><g transform="translate(158.361168, 225.146664)"><g><path d="M 15.6875 0.28125 C 13.101562 0.28125 10.742188 -0.320312 8.609375 -1.53125 C 6.484375 -2.75 4.800781 -4.441406 3.5625 -6.609375 C 2.332031 -8.773438 1.71875 -11.21875 1.71875 -13.9375 C 1.71875 -16.644531 2.332031 -19.082031 3.5625 -21.25 C 4.800781 -23.425781 6.484375 -25.117188 8.609375 -26.328125 C 10.742188 -27.535156 13.101562 -28.140625 15.6875 -28.140625 C 18.300781 -28.140625 20.671875 -27.535156 22.796875 -26.328125 C 24.921875 -25.117188 26.59375 -23.4375 27.8125 -21.28125 C 29.039062 -19.125 29.65625 -16.675781 29.65625 -13.9375 C 29.65625 -11.195312 29.039062 -8.75 27.8125 -6.59375 C 26.59375 -4.4375 24.921875 -2.75 22.796875 -1.53125 C 20.671875 -0.320312 18.300781 0.28125 15.6875 0.28125 Z M 15.6875 -2.875 C 17.632812 -2.875 19.382812 -3.328125 20.9375 -4.234375 C 22.5 -5.140625 23.722656 -6.429688 24.609375 -8.109375 C 25.503906 -9.785156 25.953125 -11.726562 25.953125 -13.9375 C 25.953125 -16.164062 25.503906 -18.113281 24.609375 -19.78125 C 23.722656 -21.445312 22.503906 -22.726562 20.953125 -23.625 C 19.410156 -24.53125 17.65625 -24.984375 15.6875 -24.984375 C 13.71875 -24.984375 11.960938 -24.53125 10.421875 -23.625 C 8.878906 -22.726562 7.660156 -21.445312 6.765625 -19.78125 C 5.867188 -18.113281 5.421875 -16.164062 5.421875 -13.9375 C 5.421875 -11.726562 5.867188 -9.785156 6.765625 -8.109375 C 7.660156 -6.429688 8.882812 -5.140625 10.4375 -4.234375 C 12 -3.328125 13.75 -2.875 15.6875 -2.875 Z M 15.6875 -2.875 "/></g></g></g><g fill="#f1f1f4" fill-opacity="1"><g transform="translate(207.581529, 225.146664)"><g><path d="M 31.296875 -27.625 L 31.296875 0 L 27.671875 0 L 27.671875 -20.59375 L 18.484375 0 L 15.921875 0 L 6.703125 -20.640625 L 6.703125 0 L 3.078125 0 L 3.078125 -27.625 L 6.984375 -27.625 L 17.203125 -4.796875 L 27.421875 -27.625 Z M 31.296875 -27.625 "/></g></g></g><g fill="#f1f1f4" fill-opacity="1"><g transform="translate(259.795458, 225.146664)"><g><path d="M 6.703125 -27.828125 L 6.703125 0 L 3.078125 0 L 3.078125 -27.828125 Z M 6.703125 -27.828125 "/></g></g></g><g fill="#f1f1f4" fill-opacity="1"><g transform="translate(287.46211, 225.146664)"><g><path d="M 6.703125 -24.875 L 6.703125 -15.5625 L 16.84375 -15.5625 L 16.84375 -12.578125 L 6.703125 -12.578125 L 6.703125 -3 L 18.046875 -3 L 18.046875 0 L 3.078125 0 L 3.078125 -27.859375 L 18.046875 -27.859375 L 18.046875 -24.875 Z M 6.703125 -24.875 "/></g></g></g><g fill="#f1f1f4" fill-opacity="1"><g transform="translate(90.311695, 251.923658)"><g><path d="M 10.328125 -9.109375 L 10.328125 0 L 9.125 0 L 9.125 -6.796875 L 6.09375 0 L 5.25 0 L 2.21875 -6.8125 L 2.21875 0 L 1.015625 0 L 1.015625 -9.109375 L 2.3125 -9.109375 L 5.671875 -1.578125 L 9.046875 -9.109375 Z M 10.328125 -9.109375 "/></g></g></g><g fill="#f1f1f4" fill-opacity="1"><g transform="translate(108.297268, 251.923658)"><g><path d="M 6.4375 -2.046875 L 2.4375 -2.046875 L 1.703125 0 L 0.4375 0 L 3.75 -9.125 L 5.140625 -9.125 L 8.4375 0 L 7.171875 0 Z M 6.09375 -3.015625 L 4.4375 -7.65625 L 2.78125 -3.015625 Z M 6.09375 -3.015625 "/></g></g></g><g fill="#f1f1f4" fill-opacity="1"><g transform="translate(123.821518, 251.923658)"><g><path d="M 7.15625 -6.5 C 7.15625 -5.726562 6.890625 -5.085938 6.359375 -4.578125 C 5.835938 -4.078125 5.046875 -3.828125 3.984375 -3.828125 L 2.21875 -3.828125 L 2.21875 0 L 1.015625 0 L 1.015625 -9.1875 L 3.984375 -9.1875 C 5.015625 -9.1875 5.800781 -8.929688 6.34375 -8.421875 C 6.882812 -7.921875 7.15625 -7.28125 7.15625 -6.5 Z M 3.984375 -4.828125 C 4.648438 -4.828125 5.140625 -4.96875 5.453125 -5.25 C 5.765625 -5.539062 5.921875 -5.957031 5.921875 -6.5 C 5.921875 -7.625 5.273438 -8.1875 3.984375 -8.1875 L 2.21875 -8.1875 L 2.21875 -4.828125 Z M 3.984375 -4.828125 "/></g></g></g><g fill="#f1f1f4" fill-opacity="1"><g transform="translate(138.095355, 251.923658)"><g/></g></g><g fill="#f1f1f4" fill-opacity="1"><g transform="translate(148.262579, 251.923658)"><g><path d="M 6.671875 -9.1875 L 6.671875 -8.203125 L 4.15625 -8.203125 L 4.15625 0 L 2.96875 0 L 2.96875 -8.203125 L 0.453125 -8.203125 L 0.453125 -9.1875 Z M 6.671875 -9.1875 "/></g></g></g><g fill="#f1f1f4" fill-opacity="1"><g transform="translate(162.036254, 251.923658)"><g><path d="M 8.09375 -9.1875 L 8.09375 0 L 6.890625 0 L 6.890625 -4.15625 L 2.21875 -4.15625 L 2.21875 0 L 1.015625 0 L 1.015625 -9.1875 L 2.21875 -9.1875 L 2.21875 -5.15625 L 6.890625 -5.15625 L 6.890625 -9.1875 Z M 8.09375 -9.1875 "/></g></g></g><g fill="#f1f1f4" fill-opacity="1"><g transform="translate(177.797418, 251.923658)"><g><path d="M 2.21875 -8.203125 L 2.21875 -5.140625 L 5.5625 -5.140625 L 5.5625 -4.15625 L 2.21875 -4.15625 L 2.21875 -0.984375 L 5.953125 -0.984375 L 5.953125 0 L 1.015625 0 L 1.015625 -9.1875 L 5.953125 -9.1875 L 5.953125 -8.203125 Z M 2.21875 -8.203125 "/></g></g></g><g fill="#f1f1f4" fill-opacity="1"><g transform="translate(191.202548, 251.923658)"><g/></g></g><g fill="#f1f1f4" fill-opacity="1"><g transform="translate(201.369776, 251.923658)"><g><path d="M 5.84375 0 L 3.65625 -3.75 L 2.21875 -3.75 L 2.21875 0 L 1.015625 0 L 1.015625 -9.1875 L 3.984375 -9.1875 C 4.671875 -9.1875 5.253906 -9.066406 5.734375 -8.828125 C 6.210938 -8.585938 6.570312 -8.265625 6.8125 -7.859375 C 7.050781 -7.453125 7.171875 -6.992188 7.171875 -6.484375 C 7.171875 -5.847656 6.988281 -5.285156 6.625 -4.796875 C 6.257812 -4.316406 5.710938 -4 4.984375 -3.84375 L 7.28125 0 Z M 2.21875 -4.71875 L 3.984375 -4.71875 C 4.628906 -4.71875 5.113281 -4.875 5.4375 -5.1875 C 5.757812 -5.507812 5.921875 -5.941406 5.921875 -6.484375 C 5.921875 -7.023438 5.757812 -7.441406 5.4375 -7.734375 C 5.125 -8.035156 4.640625 -8.1875 3.984375 -8.1875 L 2.21875 -8.1875 Z M 2.21875 -4.71875 "/></g></g></g><g fill="#f1f1f4" fill-opacity="1"><g transform="translate(216.025319, 251.923658)"><g><path d="M 5.171875 0.09375 C 4.328125 0.09375 3.550781 -0.101562 2.84375 -0.5 C 2.144531 -0.90625 1.585938 -1.460938 1.171875 -2.171875 C 0.765625 -2.890625 0.5625 -3.695312 0.5625 -4.59375 C 0.5625 -5.488281 0.765625 -6.296875 1.171875 -7.015625 C 1.585938 -7.734375 2.144531 -8.289062 2.84375 -8.6875 C 3.550781 -9.082031 4.328125 -9.28125 5.171875 -9.28125 C 6.035156 -9.28125 6.816406 -9.082031 7.515625 -8.6875 C 8.222656 -8.289062 8.773438 -7.734375 9.171875 -7.015625 C 9.578125 -6.304688 9.78125 -5.5 9.78125 -4.59375 C 9.78125 -3.6875 9.578125 -2.878906 9.171875 -2.171875 C 8.773438 -1.460938 8.222656 -0.90625 7.515625 -0.5 C 6.816406 -0.101562 6.035156 0.09375 5.171875 0.09375 Z M 5.171875 -0.953125 C 5.816406 -0.953125 6.394531 -1.097656 6.90625 -1.390625 C 7.414062 -1.691406 7.816406 -2.117188 8.109375 -2.671875 C 8.410156 -3.222656 8.5625 -3.863281 8.5625 -4.59375 C 8.5625 -5.332031 8.410156 -5.972656 8.109375 -6.515625 C 7.816406 -7.066406 7.414062 -7.492188 6.90625 -7.796875 C 6.40625 -8.097656 5.828125 -8.25 5.171875 -8.25 C 4.523438 -8.25 3.945312 -8.097656 3.4375 -7.796875 C 2.925781 -7.492188 2.523438 -7.066406 2.234375 -6.515625 C 1.941406 -5.972656 1.796875 -5.332031 1.796875 -4.59375 C 1.796875 -3.863281 1.941406 -3.222656 2.234375 -2.671875 C 2.523438 -2.117188 2.925781 -1.691406 3.4375 -1.390625 C 3.957031 -1.097656 4.535156 -0.953125 5.171875 -0.953125 Z M 5.171875 -0.953125 "/></g></g></g><g fill="#f1f1f4" fill-opacity="1"><g transform="translate(233.023739, 251.923658)"><g><path d="M 5.171875 0.09375 C 4.328125 0.09375 3.550781 -0.101562 2.84375 -0.5 C 2.144531 -0.90625 1.585938 -1.460938 1.171875 -2.171875 C 0.765625 -2.890625 0.5625 -3.695312 0.5625 -4.59375 C 0.5625 -5.488281 0.765625 -6.296875 1.171875 -7.015625 C 1.585938 -7.734375 2.144531 -8.289062 2.84375 -8.6875 C 3.550781 -9.082031 4.328125 -9.28125 5.171875 -9.28125 C 6.035156 -9.28125 6.816406 -9.082031 7.515625 -8.6875 C 8.222656 -8.289062 8.773438 -7.734375 9.171875 -7.015625 C 9.578125 -6.304688 9.78125 -5.5 9.78125 -4.59375 C 9.78125 -3.6875 9.578125 -2.878906 9.171875 -2.171875 C 8.773438 -1.460938 8.222656 -0.90625 7.515625 -0.5 C 6.816406 -0.101562 6.035156 0.09375 5.171875 0.09375 Z M 5.171875 -0.953125 C 5.816406 -0.953125 6.394531 -1.097656 6.90625 -1.390625 C 7.414062 -1.691406 7.816406 -2.117188 8.109375 -2.671875 C 8.410156 -3.222656 8.5625 -3.863281 8.5625 -4.59375 C 8.5625 -5.332031 8.410156 -5.972656 8.109375 -6.515625 C 7.816406 -7.066406 7.414062 -7.492188 6.90625 -7.796875 C 6.40625 -8.097656 5.828125 -8.25 5.171875 -8.25 C 4.523438 -8.25 3.945312 -8.097656 3.4375 -7.796875 C 2.925781 -7.492188 2.523438 -7.066406 2.234375 -6.515625 C 1.941406 -5.972656 1.796875 -5.332031 1.796875 -4.59375 C 1.796875 -3.863281 1.941406 -3.222656 2.234375 -2.671875 C 2.523438 -2.117188 2.925781 -1.691406 3.4375 -1.390625 C 3.957031 -1.097656 4.535156 -0.953125 5.171875 -0.953125 Z M 5.171875 -0.953125 "/></g></g></g><g fill="#f1f1f4" fill-opacity="1"><g transform="translate(250.022158, 251.923658)"><g><path d="M 10.328125 -9.109375 L 10.328125 0 L 9.125 0 L 9.125 -6.796875 L 6.09375 0 L 5.25 0 L 2.21875 -6.8125 L 2.21875 0 L 1.015625 0 L 1.015625 -9.109375 L 2.3125 -9.109375 L 5.671875 -1.578125 L 9.046875 -9.109375 Z M 10.328125 -9.109375 "/></g></g></g><g fill="#f1f1f4" fill-opacity="1"><g transform="translate(268.007735, 251.923658)"><g><path d="M 2.21875 -9.1875 L 2.21875 0 L 1.015625 0 L 1.015625 -9.1875 Z M 2.21875 -9.1875 "/></g></g></g><g fill="#f1f1f4" fill-opacity="1"><g transform="translate(277.898567, 251.923658)"><g><path d="M 2.21875 -8.203125 L 2.21875 -5.140625 L 5.5625 -5.140625 L 5.5625 -4.15625 L 2.21875 -4.15625 L 2.21875 -0.984375 L 5.953125 -0.984375 L 5.953125 0 L 1.015625 0 L 1.015625 -9.1875 L 5.953125 -9.1875 L 5.953125 -8.203125 Z M 2.21875 -8.203125 "/></g></g></g></svg>